4D,54,68,64,00,00,00,06,00,00,00,01,01,E0,4D,54
72,6B,00,00,2B,DF,00,FF,20,01,00,00,FF,03,00,00
FF,58,04,03,02,18,08,00,FF,59,02,FF,00,00,FF,51
03,0B,71,B0,00,FF,20,01,00,00,F0,05,7E,7F,09,01
F7,64,FF,20,01,00,00,F0,05,7E,7F,09,03,F7,64,FF
20,01,00,00,F0,08,43,10,4C,00,00,7E,00,F7,32,FF
20,01,00,00,F0,09,43,10,4C,02,01,00,01,07,F7,0A
FF,20,01,00,00,F0,08,43,10,4C,02,01,02,10,F7,0A
FF,20,01,00,00,F0,08,43,10,4C,02,01,10,08,F7,0A
FF,20,01,00,00,F0,08,43,10,4C,02,01,14,40,F7,14
FF,20,01,00,00,F0,09,43,10,4C,02,01,20,44,10,F7
0A,FF,20,01,00,00,F0,09,43,10,4C,02,01,40,50,10
F7,05,FF,20,01,00,00,F0,09,43,10,4C,02,01,42,00
3D,F7,05,FF,20,01,00,00,F0,09,43,10,4C,02,01,44
00,04,F7,05,FF,20,01,00,00,F0,09,43,10,4C,02,01
46,00,40,F7,05,FF,20,01,00,00,F0,09,43,10,4C,02
01,48,00,40,F7,05,FF,20,01,00,00,F0,09,43,10,4C
02,01,4A,00,40,F7,05,FF,20,01,00,00,F0,08,43,10
4C,02,01,70,01,F7,05,FF,20,01,00,00,F0,08,43,10
4C,02,01,71,60,F7,05,FF,20,01,00,00,F0,08,43,10
4C,02,01,72,7F,F7,05,FF,20,01,00,00,F0,08,43,10
4C,02,01,73,60,F7,05,FF,20,01,00,00,F0,08,43,10
4C,02,01,5A,01,F7,05,FF,20,01,00,00,F0,08,43,10
4C,02,01,56,50,F7,05,FF,20,01,00,00,F0,08,43,10
4C,02,01,57,40,F7,05,FF,20,01,00,00,F0,08,43,10
4C,02,01,58,40,F7,05,FF,20,01,00,00,F0,08,43,10
4C,02,01,59,00,F7,81,61,B1,00,00,00,B7,00,00,00
B8,00,00,05,B1,20,00,00,B7,20,00,00,B8,20,00,05
C1,30,00,C7,20,00,C8,31,05,B1,07,64,00,B7,07,5A
00,B8,07,32,05,B1,0A,54,00,B7,0A,40,00,B8,0A,5A
05,B1,0B,6E,00,B8,0B,6E,05,B1,47,5A,00,B1,49,54
00,B8,47,50,05,B8,49,4A,05,B1,4A,64,00,B8,4A,5A
05,B1,5B,4A,00,B8,5B,32,05,B1,5D,28,00,B2,00,00
00,B4,00,00,00,B8,5D,14,00,BB,00,00,05,B2,20,00
00,B4,20,00,00,BB,20,00,05,C2,30,00,C4,30,00,CB
31,05,B2,07,46,00,B4,07,55,00,BB,07,41,05,B2,0A
69,00,B4,0A,18,00,BB,0A,14,05,B2,49,54,00,B3,00
00,00,B4,0B,5F,00,BB,0B,64,05,B2,5B,69,00,B3,20
00,00,B4,47,3C,00,BB,47,40,05,B2,5D,28,00,C3,2E
00,B4,4A,3C,00,BB,4A,32,05,B3,07,55,00,B4,5B,46
00,BB,5B,3C,05,B3,0A,0F,00,B4,5D,28,00,BB,5D,1E
05,B3,0B,6E,05,B3,5B,64,05,B3,5D,32,0F,B5,00,00
05,B5,20,00,05,C5,10,05,B5,07,64,05,B5,0A,1E,05
B5,0B,6E,05,B5,5B,46,05,B5,5D,28,0F,B6,00,00,05
B6,20,00,05,C6,00,05,B6,07,5A,05,B6,0A,64,05,B6
0B,6E,05,B6,5B,40,05,B6,5D,14,05,B0,07,7F,05,B0
0A,40,05,B0,5B,78,05,B0,5D,14,05,B0,5E,7F,28,BA
00,00,05,BA,20,00,05,CA,2D,05,BA,07,5A,05,BA,0A
0F,82,04,B0,63,70,01,B0,62,0C,01,B0,06,00,81,69
B2,0B,4E,14,B8,0B,54,05,B1,0B,59,14,91,54,78,00
92,51,58,00,92,4D,58,00,92,54,58,00,93,39,69,00
95,48,6E,00,95,45,6E,00,95,41,6E,00,96,35,73,00
96,48,6E,00,96,45,70,00,96,41,6E,00,B7,0B,7F,00
B7,5B,14,00,B7,5D,0A,00,97,29,73,00,98,54,78,0F
B8,0B,55,05,B1,0B,5A,0F,B8,0B,56,05,B1,0B,5C,0F
B8,0B,59,05,B1,0B,5E,0F,B8,0B,5C,05,B1,0B,61,0F
B8,0B,5F,05,B1,0B,65,0F,B8,0B,64,05,B1,0B,6A,0A
B1,0B,6D,05,B2,0B,4F,00,B8,0B,69,14,B8,0B,6E,0A
B8,0B,72,32,B2,0B,50,19,83,39,40,00,93,3C,66,23
B2,0B,51,00,BA,0B,7F,00,BA,5B,54,00,BA,5D,40,28
B2,0B,52,28,B2,0B,53,28,B2,0B,54,19,B1,0B,5B,0F
B2,0B,55,19,B1,0B,5D,00,B8,0B,52,02,81,54,40,00
88,54,40,0D,B2,0B,56,05,83,3C,40,00,86,35,40,00
86,48,40,00,86,45,40,00,86,41,40,00,B1,0B,5F,00
91,54,78,00,93,41,6E,00,96,34,64,00,96,48,69,00
96,45,6E,00,96,41,66,00,98,54,73,0F,B2,0B,57,05
B1,0B,63,00,B8,0B,54,14,B1,0B,68,00,B8,0B,57,0F
B2,0B,58,05,B1,0B,6D,00,B8,0B,5B,0A,B1,0B,71,05
B2,0B,59,05,B8,0B,60,0F,B2,0B,5A,05,B8,0B,67,14
B8,0B,6E,05,B8,0B,70,0A,B2,0B,5B,14,B2,0B,5C,14
B2,0B,5D,14,B2,0B,5E,14,B2,0B,5F,14,B2,0B,60,05
83,41,40,00,93,43,65,0F,B2,0B,61,14,B2,0B,62,0F
B2,0B,63,81,11,B1,0B,55,22,81,54,40,00,88,54,40
06,B1,0B,57,05,83,43,40,00,86,34,40,00,86,48,40
00,86,45,40,00,86,41,40,00,91,54,73,00,93,41,62
00,96,32,69,00,96,48,71,00,96,45,6E,00,96,41,62
00,98,54,71,05,B8,0B,4F,0A,B1,0B,59,14,B1,0B,5D
0A,B8,0B,52,0A,B1,0B,62,0A,B8,0B,57,0A,B1,0B,68
0A,B8,0B,5E,0A,B1,0B,70,0A,B8,0B,66,0F,B8,0B,6D
78,83,41,40,00,93,3C,64,81,39,B1,0B,62,19,B8,0B
57,0A,81,54,40,00,88,54,40,14,83,3C,40,00,86,32
40,00,86,48,40,00,86,45,40,00,86,41,40,00,87,29
40,00,91,4D,71,00,93,41,69,00,96,30,65,00,96,3C
6E,00,96,45,66,00,96,41,6E,00,97,24,6E,00,98,4D
73,0A,B8,0B,58,0F,B1,0B,63,05,B8,0B,59,0F,B1,0B
64,05,B8,0B,5C,0F,B1,0B,65,05,B8,0B,5E,0F,B1,0B
67,05,B8,0B,62,0F,B1,0B,68,05,B8,0B,66,0F,B1,0B
6A,00,B8,0B,6A,14,B1,0B,6C,0A,B1,0B,6E,55,83,41
40,00,93,43,64,81,34,B2,0B,62,3C,83,43,40,00,93
45,62,78,86,30,40,00,86,3C,40,00,86,45,40,00,86
41,40,14,B2,0B,61,50,B2,0B,60,06,87,24,40,0E,81
4D,40,00,83,45,40,00,88,4D,40,00,91,4F,73,00,93
46,66,00,96,32,6E,00,96,3C,6E,00,96,45,5F,00,96
41,62,00,97,26,70,00,98,4F,6E,28,B2,0B,5F,3C,B2
0B,5E,28,B2,0B,5D,28,B2,0B,5C,24,81,4F,40,00,88
4F,40,04,B2,0B,5B,10,87,26,40,04,83,46,40,00,86
32,40,00,86,3C,40,00,86,45,40,00,86,41,40,00,91
51,71,00,93,45,64,00,96,35,65,00,96,3C,63,00,96
45,69,00,96,41,66,00,97,28,69,00,98,51,6E,14,B2
0B,5A,28,B2,0B,59,14,B2,0B,58,28,B2,0B,57,14,B2
0B,56,28,B2,0B,55,14,B2,0B,54,14,B2,0B,53,0A,B1
0B,6E,0A,83,45,40,00,93,43,6E,14,B2,0B,52,14,B2
0B,51,0A,B1,0B,6D,0A,B2,0B,50,0A,B1,0B,6C,0A,B2
0B,4F,0A,B1,0B,6B,0A,B2,0B,4E,0A,B1,0B,6A,0A,B2
0B,4D,0A,B1,0B,68,0A,B2,0B,4C,0A,B1,0B,66,05,B1
0B,65,05,B2,0B,4B,14,B2,0B,4A,0C,81,51,40,00,88
51,40,0D,B1,0B,65,1A,87,28,40,09,82,51,40,00,82
4D,40,00,82,54,40,00,83,43,40,00,85,48,40,00,85
45,40,00,85,41,40,00,86,35,40,00,86,3C,40,00,86
45,40,00,86,41,40,00,91,52,7B,00,B2,0B,4B,00,92
52,58,00,92,4D,58,00,92,4A,58,00,93,40,69,00,95
41,6E,00,95,3E,6E,00,95,46,6E,00,96,3A,63,00,96
3E,64,00,96,41,6E,00,96,46,71,00,97,22,6F,00,98
52,7A,19,B1,0B,66,14,B1,0B,67,14,B1,0B,68,14,B1
0B,6A,0F,B2,0B,4C,05,B1,0B,6C,05,B1,0B,6D,1E,B2
0B,4D,14,B2,0B,4E,14,B2,0B,4F,14,B2,0B,50,14,B2
0B,51,14,83,40,40,00,B2,0B,52,00,93,41,69,14,B2
0B,53,14,B2,0B,55,14,B2,0B,56,14,B2,0B,58,05,B2
0B,59,6B,81,52,40,00,88,52,40,27,87,22,40,09,83
41,40,00,91,52,78,00,93,43,68,00,97,24,6E,00,98
52,6E,81,70,83,43,40,00,93,45,64,81,02,B2,0B,57
28,B2,0B,56,14,B2,0B,53,02,81,52,40,00,88,52,40
12,B2,0B,50,14,B2,0B,4C,01,87,24,40,09,82,52,40
00,82,4D,40,00,82,4A,40,00,83,45,40,00,85,41,40
00,85,3E,40,00,85,46,40,00,86,3A,40,00,86,3E,40
00,86,41,40,00,86,46,40,00,91,4F,73,00,92,4F,58
00,92,4C,58,00,92,48,58,00,93,46,63,00,95,48,6E
00,95,43,6E,00,95,40,6E,00,96,37,67,00,96,43,6E
00,96,41,66,00,96,3E,69,00,97,28,73,00,98,4F,6E
23,B2,0B,4C,3C,B2,0B,4D,14,B2,0B,4F,14,B2,0B,51
14,B2,0B,53,0F,B2,0B,56,46,83,46,40,00,93,45,66
81,20,B8,0B,69,20,81,4F,40,00,88,4F,40,27,87,28
40,09,82,4F,40,00,82,4C,40,00,82,48,40,00,83,45
40,00,85,48,40,00,85,43,40,00,85,40,40,00,86,37
40,00,86,43,40,00,86,41,40,00,86,3E,40,00,91,4D
73,00,92,54,58,00,92,51,58,00,92,4D,58,00,93,39
78,00,95,48,6E,00,95,45,6E,00,95,41,6E,00,96,3C
6E,00,96,35,6F,00,97,29,73,00,98,4D,73,0A,B1,0B
6B,1E,B8,0B,6A,0A,93,3A,73,1E,B8,0B,6B,14,93,3C
6E,14,B8,0B,6C,14,B8,0B,6D,0A,93,3E,6E,0A,B8,0B
6E,0A,B1,0B,6C,0A,B8,0B,6F,14,93,40,69,0A,B2,0B
57,0A,B8,0B,71,0A,B1,0B,6D,0A,86,3C,40,00,96,41
69,00,B8,0B,72,0A,93,41,66,05,B8,0B,73,0F,B1,0B
6E,1E,93,43,64,0A,B1,0B,6F,14,B2,0B,58,14,B1,0B
70,00,93,45,64,28,B1,0B,71,00,B2,0B,59,0A,93,46
64,0A,B1,0B,72,14,B1,0B,73,00,B2,0B,5A,14,B2,0B
5B,00,93,41,73,14,B1,0B,74,05,B1,0B,75,05,86,41
40,00,96,45,67,0A,B2,0B,5C,14,B2,0B,5D,14,B2,0B
5E,00,93,45,70,14,B2,0B,5F,14,B2,0B,60,0A,93,43
70,0A,B2,0B,61,14,B2,0B,62,14,93,43,6E,32,93,45
6C,28,86,45,40,00,96,48,72,0A,93,48,6C,32,93,4A
68,2D,B1,0B,74,05,93,4C,68,32,93,4D,66,2D,B1,0B
73,14,B1,0B,72,0F,86,48,40,00,96,4D,6E,19,B1,0B
71,14,B1,0B,70,14,B1,0B,6F,14,B1,0B,6D,14,B1,0B
6C,14,B1,0B,6A,14,B1,0B,69,05,B8,0B,71,0F,B1,0B
67,14,B1,0B,65,14,B1,0B,63,05,B2,0B,61,0F,B1,0B
61,05,B8,0B,70,0F,B1,0B,5F,05,B8,0B,6F,0F,B1,0B
5D,14,B1,0B,5A,05,B2,0B,60,00,B8,0B,6E,0F,B1,0B
58,05,B8,0B,6C,02,B0,01,00,0D,B1,0B,55,05,B2,0B
5F,00,B8,0B,6B,0F,B1,0B,52,05,B2,0B,5E,00,B8,0B
69,0F,B1,0B,4F,05,B2,0B,5D,00,B8,0B,68,0F,B1,0B
4C,05,B2,0B,5C,00,B8,0B,66,00,FF,20,01,0C,00,F0
2A,43,79,09,00,50,10,4D,2C,73,20,61,2C,67,27,20
69,2C,6F,2C,69,2C,53,20,69,2C,6B,20,61,2C,6E,20
6F,2C,6A,20,61,2C,6D,20,61,00,F7,09,FF,20,01,00
00,F0,09,43,10,4C,02,01,42,00,40,F7,01,B0,0B,5E
00,90,41,70,05,B1,0B,49,05,B2,0B,5B,00,B8,0B,64
0F,B1,0B,46,05,B2,0B,59,00,B8,0B,62,0A,B0,0B,5F
05,B1,0B,42,05,B2,0B,58,00,B8,0B,5F,02,87,29,40
08,B0,0B,61,05,B1,0B,3F,05,B2,0B,56,00,B8,0B,5D
0A,85,48,40,00,85,45,40,00,85,41,40,00,86,4D,40
00,86,35,40,00,B0,0B,63,00,95,48,58,00,95,45,58
00,95,41,58,00,96,41,69,00,96,35,64,00,97,29,6E
05,B1,0B,3B,05,B2,0B,54,00,B8,0B,5A,0A,B0,0B,66
05,B1,0B,37,05,B2,0B,52,00,B8,0B,58,0A,B0,0B,6A
05,B1,0B,34,05,B2,0B,50,00,B8,0B,55,0A,B0,0B,6F
05,B1,0B,30,05,B2,0B,4E,00,B8,0B,51,0F,B1,0B,2B
05,B2,0B,4C,00,B8,0B,4E,14,B2,0B,49,00,B8,0B,4B
14,B2,0B,47,00,B8,0B,47,14,B2,0B,44,00,B8,0B,43
14,B2,0B,41,00,B8,0B,3F,14,B2,0B,3E,00,B8,0B,3B
14,B2,0B,3B,00,B8,0B,37,14,B2,0B,38,00,B8,0B,33
0A,86,41,40,00,96,45,63,0A,B2,0B,34,00,B8,0B,2E
0F,B8,0B,2A,05,B2,0B,31,14,B2,0B,2D,14,B2,0B,29
0A,80,41,40,0A,B2,0B,25,14,B2,0B,21,05,B0,0B,59
05,81,4D,40,00,88,4D,40,00,90,41,6E,0A,B2,0B,1D
14,B2,0B,19,14,B2,0B,14,05,B0,0B,5A,0F,B2,0B,0F
05,B0,0B,5B,14,B0,0B,5D,14,B0,0B,5F,05,82,54,40
00,82,51,40,00,82,4D,40,00,86,45,40,00,96,48,5F
0F,B0,0B,61,14,B0,0B,64,14,B0,0B,66,14,B0,0B,6A
0A,B0,0B,6C,81,1B,86,48,40,00,96,45,6E,81,07,B0
0B,56,0F,80,41,40,0A,90,41,6C,0F,B0,0B,57,14,B0
0B,58,14,B0,0B,5A,14,B0,0B,5C,05,86,45,40,00,83
39,40,00,96,48,69,0F,B0,0B,5F,14,B0,0B,62,0F,83
3A,40,05,B0,0B,66,0A,B0,0B,69,23,83,3C,40,32,83
3E,40,32,83,40,40,28,86,48,40,00,96,45,6E,0A,83
41,40,32,83,43,40,32,83,45,40,28,B0,0B,57,09,FF
20,01,00,00,F0,09,43,10,4C,02,01,42,00,3D,F7,01
80,41,40,00,83,46,40,00,90,43,64,32,83,41,40,02
87,29,40,12,B0,0B,58,0A,86,45,40,00,85,48,40,00
85,45,40,00,85,41,40,00,86,35,40,00,95,43,58,00
95,40,58,00,95,3C,58,00,96,40,64,00,96,30,70,00
97,24,74,0A,B0,0B,59,14,B0,0B,5A,14,83,45,40,00
B0,0B,5B,14,B0,0B,5D,14,B0,0B,5E,0A,83,43,40,0A
B0,0B,60,14,B0,0B,62,14,83,43,40,00,B0,0B,64,14
B0,0B,67,1E,83,45,40,05,B0,01,00,23,86,40,40,00
96,43,6E,0A,83,48,40,0F,B0,01,01,23,83,4A,40,05
B0,01,02,14,B0,01,04,14,B0,01,05,05,83,4C,40,0F
B0,01,07,14,B0,01,09,0F,83,4D,40,05,B0,01,0B,14
B0,01,0E,14,B0,01,10,23,86,43,40,00,96,48,63,78
B0,01,00,09,FF,20,01,00,00,F0,09,43,10,4C,02,01
42,00,39,F7,01,90,45,70,0A,80,43,40,56,87,24,40
0E,86,48,40,00,96,43,58,00,97,28,63,81,0C,80,45
40,00,90,43,6E,1E,B0,0B,5C,3C,B0,0B,5D,06,87,28
40,04,86,43,40,00,96,48,6E,00,97,24,69,0A,B0,0B
5E,05,B0,01,00,0F,B0,0B,60,14,B0,0B,62,14,B0,0B
64,14,B0,0B,66,05,B0,01,01,0F,B0,0B,69,0F,B0,0B
6C,0A,B0,01,02,14,B0,01,03,14,B0,01,05,14,B0,01
06,05,B0,0B,69,0F,B0,01,07,14,B0,01,09,05,86,48
40,00,96,43,69,0F,B0,01,0B,05,B0,0B,68,0F,B0,01
0D,05,B0,0B,66,0F,B0,01,0F,05,B0,01,10,00,B0,0B
65,14,B0,01,13,00,B0,0B,62,14,B0,01,14,00,B0,0B
60,0A,B0,0B,5E,0A,80,43,40,00,B0,01,18,19,B0,01
00,22,FF,20,01,00,00,F0,09,43,10,4C,02,01,42,00
3C,F7,01,90,45,71,19,B0,0B,61,1A,87,24,40,09,86
43,40,00,85,43,40,00,85,40,40,00,85,3C,40,00,86
30,40,00,95,45,58,00,95,48,58,00,95,40,58,00,96
40,66,00,96,39,6E,00,97,29,73,05,B0,0B,63,14,B0
0B,67,14,B0,0B,6C,0F,B0,0B,71,81,34,86,40,40,00
96,45,6E,81,02,90,45,6E,6E,86,45,40,00,86,39,40
00,96,48,63,00,96,39,6E,81,70,86,48,40,00,96,45
5F,77,FF,20,01,00,00,F0,09,43,10,4C,02,01,42,00
3B,F7,01,80,45,40,00,80,45,40,00,90,46,72,41,B0
0B,63,14,B0,0B,64,14,B0,0B,66,0F,85,45,40,00,86
45,40,00,86,39,40,00,87,29,40,00,95,46,58,00,96
46,64,00,96,3A,69,00,97,2E,76,05,B0,0B,68,14,B0
0B,6A,14,B0,0B,6D,0F,B0,0B,70,81,25,B0,0B,6E,0F
86,46,40,00,96,48,66,2D,B0,0B,6C,14,B0,0B,6B,14
B0,0B,69,14,B0,0B,66,14,B0,0B,63,05,B0,0B,62,13
FF,20,01,00,00,F0,09,43,10,4C,02,01,42,00,3D,F7
01,90,48,76,14,B0,0B,63,14,B0,0B,64,14,B0,0B,65
14,80,46,40,00,B0,0B,66,01,87,2E,40,09,85,46,40
00,85,48,40,00,85,40,40,00,86,48,40,00,86,3A,40
00,95,40,58,00,95,45,58,00,95,48,58,00,96,4D,69
00,96,35,66,00,97,29,70,0A,B0,0B,68,14,B0,0B,6A
14,B0,0B,6C,14,B0,0B,6E,14,B0,0B,71,14,B0,0B,74
05,B0,0B,75,7D,86,4D,40,00,96,48,6E,1E,B0,01,00
64,B0,01,01,14,B0,01,02,28,B0,01,03,14,B0,01,04
14,B0,01,05,01,87,29,40,09,86,48,40,00,96,45,67
00,97,2B,6E,0A,B0,01,07,14,B0,01,08,14,B0,01,09
14,B0,01,0B,05,B0,0B,74,0F,B0,01,0D,14,B0,01,0E
14,B0,01,10,05,B0,0B,73,0F,B0,01,12,05,B0,0B,72
0F,B0,01,14,05,B0,0B,71,0F,B0,01,17,05,B0,0B,70
0A,B0,01,18,0A,B0,0B,6E,14,B0,0B,6C,05,86,45,40
00,96,41,66,0F,B0,0B,6A,14,B0,0B,67,14,B0,0B,64
14,B0,0B,61,14,B0,0B,5E,14,B0,0B,5A,14,B0,0B,56
14,B0,0B,52,14,B0,0B,4D,14,B0,0B,49,14,B0,0B,44
10,87,2B,40,04,B0,0B,3E,05,86,41,40,00,80,48,40
00,96,45,65,00,97,2D,6E,81,70,86,45,40,00,96,48
63,60,B0,01,00,36,FF,20,01,0C,00,F0,31,43,79,09
00,50,10,6B,20,6F,2C,62,20,4D,2C,6E,20,61,2C,74
73,20,4D,2C,34,27,20,69,2C,53,20,69,2C,6B,20,61
2C,6E,20,6F,2C,6B,20,61,2C,77,20,61,00,F7,19,B0
0B,64,04,FF,20,01,00,00,F0,09,43,10,4C,02,01,42
00,3B,F7,01,90,46,6C,23,B0,0B,65,10,87,2D,40,04
B0,0B,66,05,85,40,40,00,85,45,40,00,85,48,40,00
86,48,40,00,86,35,40,00,95,3E,58,00,95,41,58,00
95,46,58,00,96,4D,62,00,96,3A,66,00,97,2E,76,00
9A,46,6C,00,9A,41,5F,0F,B0,0B,68,14,B0,0B,6A,14
B0,0B,6D,0F,B0,0B,70,81,2A,86,4D,40,00,96,4A,67
81,04,80,46,40,26,90,48,6E,2E,8A,46,40,00,8A,41
40,18,86,4A,40,00,87,2E,40,00,96,46,69,00,97,32
76,00,9A,48,6E,00,9A,41,62,81,70,86,46,40,00,96
4A,6E,66,80,48,40,11,FF,20,01,00,00,F0,09,43,10
4C,02,01,42,00,3C,F7,01,90,4A,77,60,8A,48,40,00
8A,41,40,18,86,4A,40,00,87,32,40,00,96,46,66,00
97,2E,76,00,9A,4A,6D,00,9A,41,63,81,70,86,46,40
00,96,41,67,78,80,4A,40,3C,90,45,69,23,B0,0B,63
01,8A,4A,40,00,8A,41,40,18,85,3E,40,00,85,41,40
00,85,46,40,00,86,41,40,00,86,3A,40,00,87,2E,40
00,95,48,58,00,95,45,58,00,95,40,58,00,96,4D,63
00,96,35,6E,00,97,29,73,32,B0,01,00,05,B0,0B,64
28,B0,0B,65,14,B0,0B,66,0F,B0,01,01,05,B0,0B,67
14,B0,0B,68,0F,B0,01,02,05,B0,0B,69,0F,B0,01,03
05,B0,0B,6B,0F,B0,01,04,05,B0,0B,6D,0F,B0,01,05
0A,86,4D,40,00,96,48,5F,0A,B0,01,06,14,B0,01,07
14,B0,01,09,14,B0,0B,6C,00,B0,01,0A,14,B0,01,0C
14,B0,01,0E,14,B0,01,10,14,B0,01,12,14,B0,0B,6B
00,B0,01,14,0A,B0,01,16,0A,B0,0B,6A,28,B0,0B,69
0A,86,48,40,00,96,45,64,0A,B0,0B,68,14,B0,0B,67
14,B0,0B,65,14,B0,0B,64,14,B0,0B,63,14,B0,0B,61
05,B0,0B,60,15,B0,01,00,17,FF,20,01,00,00,F0,09
43,10,4C,02,01,42,00,3D,F7,01,90,46,73,14,80,45
40,3C,86,45,40,00,87,29,40,00,96,48,67,00,97,2D
6E,81,20,80,46,40,13,FF,20,01,00,00,F0,09,43,10
4C,02,01,42,00,3C,F7,01,90,45,66,3C,86,48,40,00
87,2D,40,00,96,45,68,00,97,29,73,81,70,86,45,40
00,96,40,66,81,04,80,45,40,2F,FF,20,01,00,00,F0
09,43,10,4C,02,01,42,00,3D,F7,01,90,43,6E,19,B0
0B,5C,1A,87,29,40,09,85,48,40,00,85,45,40,00,85
40,40,00,86,40,40,00,86,35,40,00,95,43,58,00,95
40,58,00,95,3C,58,00,96,3C,63,00,96,30,69,00,97
24,68,19,B0,0B,5E,14,B0,0B,5F,14,B0,0B,62,14,B0
0B,64,14,B0,0B,68,81,07,86,3C,40,00,96,40,65,81
16,80,43,40,00,90,43,69,46,B0,0B,5D,14,86,40,40
00,96,43,69,14,B0,0B,5E,14,B0,0B,60,14,B0,0B,63
14,B0,0B,67,81,20,86,43,40,00,96,48,64,5A,80,43
40,3B,FF,20,01,00,00,F0,09,43,10,4C,02,01,42,00
3C,F7,01,90,40,66,5A,86,48,40,00,87,24,40,00,96
43,63,00,97,28,6E,81,70,86,43,40,00,96,40,60,81
01,FF,20,01,00,00,F0,09,43,10,4C,02,01,42,00,3B
F7,01,80,40,40,00,90,41,6E,65,87,28,40,09,85,43
40,00,85,40,40,00,85,3C,40,00,86,40,40,00,86,30
40,00,94,59,6F,00,95,48,58,00,95,45,58,00,95,41
58,00,96,41,67,00,96,35,65,00,97,29,6E,00,9B,59
6F,78,84,59,40,00,8B,59,40,00,94,58,6D,00,9B,58
6D,11,B0,0B,64,3C,B0,0B,65,2B,84,58,40,00,86,41
40,00,8B,58,40,00,94,56,6E,00,96,45,5F,00,9B,56
6E,0A,B0,01,00,07,B0,0B,66,28,B0,0B,67,28,B0,0B
68,17,84,56,40,00,8B,56,40,00,94,54,69,00,9B,54
69,05,B0,0B,69,05,B0,01,01,28,B0,01,02,28,B0,01
03,0B,B0,0B,67,13,84,54,40,00,86,45,40,00,8B,54
40,00,94,56,6E,00,96,48,66,00,9B,56,6E,0A,B0,01
04,14,B0,01,05,14,B0,01,06,14,B0,01,07,0B,B0,0B
66,09,B0,01,08,14,B0,01,09,0A,84,56,40,00,8B,56
40,00,93,39,78,00,94,54,6E,00,9B,54,6E,01,B0,0B
65,09,B0,01,0A,0B,B0,0B,64,09,B0,01,0B,14,B0,01
0C,00,93,3A,73,0B,B0,0B,63,09,B0,01,0E,0B,B0,0B
62,09,B0,01,0F,0A,93,3C,6E,01,B0,0B,61,05,87,29
40,04,B0,01,11,0A,86,48,40,00,84,54,40,00,8B,54
40,00,94,52,64,00,96,45,63,00,97,29,64,00,9B,52
64,01,B0,0B,60,09,B0,01,12,0B,B0,0B,5E,09,B0,01
14,00,93,3E,6E,0B,B0,0B,5D,09,B0,01,15,0B,B0,0B
5B,09,B0,01,17,0A,93,40,69,01,B0,0B,5A,09,B0,01
19,0B,B0,0B,58,09,B0,01,1B,0A,84,52,40,00,8B,52
40,00,94,51,69,00,9B,51,69,01,B0,0B,57,09,B0,01
1D,00,93,41,66,0B,B0,0B,55,09,B0,01,1F,0B,B0,0B
53,13,93,43,64,01,B0,0B,51,14,B0,0B,4F,14,B0,0B
4C,09,93,45,63,06,87,29,40,04,84,51,40,00,86,45
40,00,8B,51,40,00,94,52,6C,00,96,48,69,00,97,2D
6E,00,9B,52,6C,0A,80,41,40,1E,93,46,63,32,93,47
62,1E,84,52,40,00,8B,52,40,00,94,51,70,00,9B,51
70,14,93,48,5F,32,93,4A,5F,32,84,51,40,00,86,48
40,00,87,2D,40,00,8B,51,40,00,93,4C,5E,00,94,4F
6E,00,96,45,64,00,97,2E,78,00,9B,4F,6E,32,93,4D
5B,22,B0,01,00,24,84,4F,40,00,8B,4F,40,00,B0,0B
6C,00,94,4D,70,00,9B,4D,70,1E,FF,20,01,0C,00,F0
38,43,79,09,00,50,10,6A,20,4D,2C,4D,2C,6D,20,65
2C,77,20,61,2C,69,2C,69,2C,6D,20,61,2C,6D,20,6F
2C,6D,20,65,2C,65,2C,67,20,4D,2C,4D,2C,34,27,20
69,2C,69,2C,74,20,65,00,F7,1D,FF,20,01,00,00,F0
09,43,10,4C,02,01,42,00,40,F7,01,90,43,73,2D,B0
0B,6A,00,B4,0B,64,00,BB,0B,64,0F,85,48,40,00,85
45,40,00,85,41,40,00,86,35,40,00,84,4D,40,00,86
45,40,00,87,2E,40,00,8B,4D,40,00,94,4F,73,00,95
43,58,00,95,40,58,00,95,3C,58,00,96,30,69,00,96
43,63,00,96,40,69,00,96,3C,63,00,97,24,6E,00,9B
4F,73,55,B0,0B,6B,28,B0,0B,6C,14,B0,0B,6D,14,B0
0B,6E,00,B4,0B,65,00,BB,0B,65,0F,90,41,5F,05,B0
0B,6F,14,B0,0B,70,14,B0,0B,71,0F,86,30,40,00,86
43,40,00,86,40,40,00,86,3C,40,00,80,43,40,00,96
30,69,00,96,43,65,00,96,40,63,00,96,3C,63,05,B0
0B,72,00,B4,0B,66,00,BB,0B,66,14,B0,0B,73,0F,B0
0B,75,05,B4,0B,67,00,BB,0B,67,28,B4,0B,68,00,BB
0B,68,37,90,43,6E,05,B4,0B,69,00,BB,0B,69,0B,80
41,40,09,B4,0B,6A,00,BB,0B,6A,0F,87,24,40,14,97
24,50,05,B4,0B,6B,00,BB,0B,6B,0F,87,24,40,00,97
26,5A,14,86,30,40,00,86,43,40,00,86,40,40,00,86
3C,40,00,87,26,40,00,96,30,64,00,96,43,67,00,96
40,63,00,96,3C,64,00,97,28,6E,05,B4,0B,6C,00,BB
0B,6C,0A,B4,0B,6D,00,BB,0B,6D,50,B0,0B,75,3C,B0
0B,74,28,B0,0B,73,14,B0,0B,71,14,B0,0B,70,05,87
28,40,00,97,26,6E,0F,B0,0B,6E,14,B0,0B,6C,14,B0
0B,6A,14,B0,0B,68,14,B0,0B,65,0A,B0,0B,63,0F,90
3C,69,05,80,43,40,5A,B0,0B,60,19,86,30,40,00,86
43,40,00,86,40,40,00,86,3C,40,00,87,26,40,00,96
30,65,00,96,43,5B,00,96,40,69,00,96,3C,63,00,97
24,6E,28,B0,01,00,23,B0,0B,61,14,B0,0B,62,05,B0
01,01,14,B0,01,02,0F,B0,0B,63,05,B0,01,04,0F,B0
0B,64,00,B4,0B,6C,00,BB,0B,6C,05,B0,01,06,0F,B0
0B,65,05,B0,01,08,0F,B0,0B,67,05,B0,01,0B,0F,B0
0B,68,05,B0,01,0E,0F,B0,0B,69,00,B4,0B,6B,00,BB
0B,6B,05,B0,01,12,0A,B0,0B,6B,0A,B0,01,16,0F,B4
0B,6A,00,BB,0B,6A,14,B4,0B,69,00,BB,0B,69,14,B4
0B,67,00,BB,0B,67,14,B4,0B,66,00,BB,0B,66,14,B4
0B,65,00,BB,0B,65,05,86,30,40,00,86,43,40,00,86
40,40,00,86,3C,40,00,80,3C,40,0F,B0,01,00,00,B4
0B,63,00,BB,0B,63,14,B4,0B,61,00,BB,0B,61,0F,B4
0B,5F,00,BB,0B,5F,09,FF,20,01,00,00,F0,09,43,10
4C,02,01,42,00,3B,F7,01,90,41,69,28,B4,0B,5F,00
BB,0B,5F,0F,B0,0B,62,05,84,4F,40,00,85,43,40,00
85,40,40,00,85,3C,40,00,87,24,40,00,8B,4F,40,00
94,51,72,00,95,48,58,00,95,45,58,00,95,41,58,00
96,35,62,00,96,48,64,00,96,45,69,00,96,41,66,00
97,29,6E,00,9B,51,72,23,B0,0B,63,14,B0,0B,64,05
B4,0B,60,00,BB,0B,60,0F,B0,0B,66,05,B4,0B,61,00
BB,0B,61,0F,B0,0B,68,05,B4,0B,62,00,BB,0B,62,0A
B0,0B,6B,0A,83,39,40,00,B4,0B,63,00,BB,0B,63,14
B4,0B,65,00,BB,0B,65,14,B4,0B,66,00,BB,0B,66,0A
83,3A,40,09,FF,20,01,00,00,F0,09,43,10,4C,02,01
42,00,3D,F7,01,90,43,5F,00,B4,0B,68,00,BB,0B,68
14,B4,0B,6A,00,BB,0B,6A,05,B4,0B,6B,00,BB,0B,6B
0F,83,3C,40,14,80,41,40,00,86,35,40,00,86,48,40
00,86,45,40,00,86,41,40,00,96,35,64,00,96,48,66
00,96,45,69,00,96,41,65,1E,83,3E,40,32,83,40,40
28,B0,0B,67,0A,83,41,40,13,FF,20,01,00,00,F0,09
43,10,4C,02,01,42,00,3C,F7,01,90,45,6C,1E,83,43
40,00,87,29,40,00,B0,0B,68,14,B0,0B,69,00,97,29
50,14,87,29,40,00,B0,0B,6B,00,97,2B,5A,0A,83,45
40,0A,80,43,40,00,86,35,40,00,86,48,40,00,86,45
40,00,86,41,40,00,87,2B,40,00,B0,0B,6C,00,96,35
63,00,96,48,69,00,96,45,65,00,96,41,63,00,97,2D
6E,14,B0,0B,6F,14,83,46,40,00,B0,0B,71,14,B0,0B
74,0A,B0,0B,76,14,83,47,40,32,83,48,40,32,83,4A
40,0A,B0,0B,76,28,83,4C,40,00,87,2D,40,00,B0,0B
75,00,97,2B,6E,14,B0,0B,74,14,B0,0B,72,0A,83,4D
40,0A,B0,0B,6F,14,B0,0B,6C,00,B4,0B,6C,00,BB,0B
6C,14,B0,0B,69,02,80,45,40,03,B0,0B,67,4B,90,45
6E,14,B4,0B,6B,00,BB,0B,6B,28,86,35,40,00,87,2B
40,00,86,48,40,00,86,45,40,00,86,41,40,00,96,35
6E,00,96,48,65,00,96,45,64,00,96,41,6F,00,97,29
6E,14,B4,0B,6A,00,BB,0B,6A,28,B4,0B,69,00,BB,0B
69,14,B4,0B,68,00,BB,0B,68,28,B4,0B,67,00,BB,0B
67,05,B0,01,00,0F,B4,0B,66,00,BB,0B,66,14,B4,0B
65,00,BB,0B,65,14,B4,0B,64,00,BB,0B,64,05,B0,01
01,0F,B4,0B,63,00,BB,0B,63,05,B0,01,02,05,B0,0B
66,0A,B4,0B,62,00,BB,0B,62,05,B0,01,03,0F,B4,0B
61,00,BB,0B,61,05,B0,01,04,0F,B4,0B,60,00,BB,0B
60,05,B0,01,06,05,B0,0B,67,0A,B4,0B,5F,00,BB,0B
5F,05,B0,01,08,0F,B4,0B,5E,00,BB,0B,5E,05,B0,01
0A,05,B0,0B,68,0A,B4,0B,5C,00,BB,0B,5C,05,B0,01
0D,05,B0,0B,6A,0A,B4,0B,5B,00,BB,0B,5B,05,B0,01
0F,05,B0,0B,6B,0A,86,35,40,00,86,48,40,00,86,45
40,00,86,41,40,00,B0,01,12,00,B4,0B,59,00,BB,0B
59,0A,B0,0B,6D,02,80,45,40,03,B0,0B,6E,05,B4,0B
58,00,BB,0B,58,14,B4,0B,56,00,BB,0B,56,13,FF,20
01,00,00,F0,09,43,10,4C,02,01,42,00,3B,F7,01,90
46,6E,00,B4,0B,55,00,BB,0B,55,0F,B4,0B,53,00,BB
0B,53,0F,B0,01,00,19,B4,0B,54,00,BB,0B,54,05,84
51,40,00,85,48,40,00,85,45,40,00,85,41,40,00,87
29,40,00,8B,51,40,00,94,52,6E,00,95,3E,58,00,95
41,58,00,95,46,58,00,96,3A,63,00,96,46,5F,00,96
41,6E,00,96,3E,63,00,97,2E,6E,00,9B,52,6E,14,B4
0B,55,00,BB,0B,55,3C,B4,0B,56,00,BB,0B,56,28,B4
0B,57,00,BB,0B,57,14,B4,0B,59,00,BB,0B,59,14,B4
0B,5A,00,BB,0B,5A,14,90,45,55,00,B4,0B,5C,00,BB
0B,5C,14,B4,0B,5E,00,BB,0B,5E,14,B4,0B,60,00,BB
0B,60,10,87,2E,40,04,80,46,40,00,86,3A,40,00,86
46,40,00,86,41,40,00,86,3E,40,00,B4,0B,62,00,96
3A,67,00,96,46,66,00,96,41,63,00,96,3E,6E,00,97
2D,70,00,BB,0B,62,14,B4,0B,65,00,BB,0B,65,0A,B4
0B,67,00,BB,0B,67,81,16,90,46,6E,05,B0,0B,71,33
87,2D,40,04,86,3A,40,00,86,46,40,00,86,41,40,00
86,3E,40,00,80,45,40,00,96,3A,64,00,96,46,65,00
96,41,66,00,96,3E,69,00,97,2B,71,2D,B0,0B,70,28
B0,0B,6F,14,B0,0B,6E,14,B0,0B,6D,23,B0,01,00,05
B0,0B,6B,14,B0,0B,6A,14,B0,0B,69,14,B0,0B,68,0F
B0,01,01,05,B0,0B,66,14,B0,0B,65,0F,B0,01,02,05
B0,0B,63,0F,B0,01,03,05,B0,0B,61,0F,B0,01,04,05
B0,0B,5F,0F,B0,01,05,14,B0,01,07,14,B0,01,08,14
B0,01,0A,14,B0,01,0B,0F,B0,0B,5F,05,B0,01,0D,14
B0,01,0F,14,86,3A,40,00,86,46,40,00,86,41,40,00
86,3E,40,00,B0,01,12,0F,B0,0B,60,05,B0,01,14,05
B0,01,15,1E,B0,0B,61,14,B0,0B,63,14,B0,0B,64,14
B0,0B,66,14,B0,0B,68,14,B0,0B,6A,14,B0,0B,6D,04
FF,20,01,00,00,F0,09,43,10,4C,02,01,42,00,3C,F7
01,90,4A,7D,0F,B0,0B,6F,14,B0,0B,72,00,B0,01,00
0B,87,2B,40,09,B0,0B,75,05,84,52,40,00,80,46,40
00,8B,52,40,00,94,56,78,00,96,3A,65,00,96,46,62
00,96,41,5F,00,96,3E,63,00,97,32,69,00,9B,56,78
0F,B0,0B,79,0A,B0,0B,7B,81,1A,FF,20,01,00,00,F0
09,43,10,4C,02,01,42,00,3E,F7,01,90,48,7A,23,B4
0B,5F,00,BB,0B,5F,15,87,32,40,04,80,4A,40,00,84
56,40,00,85,3E,40,00,85,41,40,00,85,46,40,00,86
3A,40,00,86,46,40,00,86,41,40,00,86,3E,40,00,8B
56,40,00,94,54,6E,00,95,48,58,00,95,45,58,00,95
41,58,00,96,35,6E,00,96,48,66,00,96,45,6E,00,96
41,69,00,97,30,6C,00,9B,54,6E,0F,B4,0B,60,00,BB
0B,60,14,B4,0B,61,00,BB,0B,61,14,B4,0B,63,00,BB
0B,63,14,B4,0B,65,00,BB,0B,65,14,B4,0B,68,00,BB
0B,68,14,B4,0B,6B,00,BB,0B,6B,14,B4,0B,6F,00,BB
0B,6F,14,B4,0B,73,00,BB,0B,73,0A,B4,0B,76,00,BB
0B,76,0E,FF,20,01,00,00,F0,09,43,10,4C,02,01,42
00,3D,F7,01,90,46,76,38,87,30,40,04,86,35,40,00
86,48,40,00,86,45,40,00,86,41,40,00,80,48,40,00
96,35,66,00,96,48,68,00,96,45,69,00,96,41,6E,00
97,2E,65,78,80,46,40,1E,B4,0B,75,00,BB,0B,75,09
FF,20,01,00,00,F0,09,43,10,4C,02,01,42,00,3C,F7
01,90,45,70,32,B4,0B,74,00,BB,0B,74,14,B4,0B,73
00,BB,0B,73,06,87,2E,40,04,84,54,40,00,86,35,40
00,86,48,40,00,86,45,40,00,86,41,40,00,8B,54,40
00,94,51,69,00,96,35,63,00,96,48,69,00,96,45,68
00,96,41,67,00,97,2D,69,00,9B,51,69,0A,B4,0B,72
00,BB,0B,72,14,B4,0B,71,00,BB,0B,71,0F,B0,0B,79
05,B4,0B,6F,00,BB,0B,6F,0A,B0,01,00,0A,B4,0B,6D
00,BB,0B,6D,14,B4,0B,6B,00,BB,0B,6B,14,B4,0B,69
00,BB,0B,69,0F,B4,0B,66,00,BB,0B,66,0F,B0,01,01
05,B0,0B,78,14,B0,0B,77,0F,B0,01,02,14,B0,01,03
05,B0,0B,76,0F,B0,01,04,05,B0,0B,75,0F,87,2D,40
00,B0,01,05,00,97,2B,69,05,B0,0B,73,0F,B0,01,06
05,B0,0B,72,0F,B0,01,07,05,B0,0B,71,0F,B0,01,09
05,B0,0B,6F,0F,B0,01,0A,05,B0,0B,6E,0F,B0,01,0C
05,B0,0B,6C,0F,B0,01,0E,05,B0,0B,6A,0F,B0,01,10
05,B0,0B,68,0F,B0,01,12,05,B0,0B,66,0F,B0,01,14
00,B4,0B,63,00,BB,0B,63,05,B0,0B,64,0F,B0,01,17
05,B0,0B,61,0F,B0,01,19,05,B0,0B,5F,0F,87,2B,40
00,B0,01,1C,00,97,29,69,05,B0,0B,5C,00,B0,01,1D
0F,B4,0B,62,00,BB,0B,62,05,B0,0B,5A,14,B0,0B,57
0F,B4,0B,61,00,BB,0B,61,05,B0,0B,54,0F,B4,0B,60
00,BB,0B,60,05,B0,0B,51,0F,B0,0B,4E,00,B4,0B,5F
00,BB,0B,5F,14,B4,0B,5E,00,BB,0B,5E,14,B4,0B,5D
00,BB,0B,5D,14,80,45,40,00,B4,0B,5C,00,BB,0B,5C
14,B4,0B,5A,00,BB,0B,5A,14,B4,0B,58,00,BB,0B,58
14,B4,0B,57,00,BB,0B,57,14,86,35,40,00,86,48,40
00,86,45,40,00,86,41,40,00,B4,0B,55,00,BB,0B,55
14,B4,0B,53,00,BB,0B,53,14,B4,0B,51,00,BB,0B,51
14,B4,0B,4E,00,BB,0B,4E,14,B4,0B,4C,00,BB,0B,4C
14,B4,0B,49,00,BB,0B,49,08,B0,01,00,0C,87,29,40
00,B4,0B,47,00,BB,0B,47,14,B4,0B,44,00,BB,0B,44
0A,FF,20,01,0C,00,F0,31,43,79,09,00,50,10,77,20
61,2C,73,20,4D,2C,34,20,65,2C,67,20,61,2C,74,20
61,2C,6B,27,20,69,2C,70,5C,20,4D,2C,34,20,4D,2C
73,20,61,2C,74,20,6F,00,F7,05,B4,0B,41,00,BB,0B
41,0F,B0,0B,5C,09,FF,20,01,00,00,F0,09,43,10,4C
02,01,42,00,3E,F7,01,90,48,6E,1E,B0,0B,5D,05,B4
0B,4C,00,BB,0B,4C,0F,B0,0B,5E,0A,84,51,40,00,85
48,40,00,85,45,40,00,85,41,40,00,8B,51,40,00,94
59,69,00,95,48,58,00,95,45,58,00,95,41,58,00,96
41,5F,00,96,35,65,00,97,29,67,00,9B,59,69,0A,B0
0B,60,14,B0,0B,63,05,B4,0B,4D,00,BB,0B,4D,0F,B0
0B,66,05,B4,0B,4E,00,BB,0B,4E,0F,B0,0B,6A,05,B4
0B,4F,00,BB,0B,4F,0F,B0,0B,6F,05,B4,0B,51,00,BB
0B,51,0A,B0,0B,73,0A,B4,0B,53,00,BB,0B,53,14,B4
0B,55,00,BB,0B,55,05,B4,0B,56,00,BB,0B,56,64,84
59,40,00,86,41,40,00,8B,59,40,00,94,58,64,00,96
45,64,00,9B,58,64,81,11,80,48,40,0E,FF,20,01,00
00,F0,09,43,10,4C,02,01,42,00,3D,F7,01,90,48,69
05,B0,0B,5B,28,B0,0B,5C,14,B0,0B,5D,07,87,29,40
08,84,58,40,00,86,45,40,00,8B,58,40,00,94,59,62
00,96,48,63,00,97,24,6B,00,9B,59,62,05,B0,0B,5F
14,B0,0B,62,14,B0,0B,65,14,B0,0B,69,14,B0,0B,6E
0A,B0,0B,71,81,11,86,48,40,00,96,45,67,81,00,80
48,40,0B,FF,20,01,00,00,F0,09,43,10,4C,02,01,42
00,3B,F7,01,90,48,6E,23,B0,0B,5B,39,87,24,40,03
B0,0B,5D,05,84,59,40,00,86,45,40,00,8B,59,40,00
94,54,67,00,96,48,64,00,97,21,6D,00,9B,54,67,0F
B0,0B,5E,14,B0,0B,61,14,B0,0B,63,14,B0,0B,67,14
B0,0B,6A,0F,B0,0B,6E,81,02,86,48,40,00,96,45,65
70,80,48,40,1C,B0,0B,60,27,FF,20,01,00,00,F0,09
43,10,4C,02,01,42,00,3B,F7,01,90,41,6C,28,B0,0B
61,0B,87,21,40,09,84,54,40,00,86,45,40,00,86,35
40,00,8B,54,40,00,B0,0B,62,00,94,51,64,00,96,41
63,00,96,35,63,00,97,24,6E,00,9B,51,64,14,B0,0B
63,14,B0,0B,64,14,B0,0B,66,14,B0,0B,68,05,B4,0B
54,00,BB,0B,54,0F,B0,0B,69,14,B0,0B,6C,14,B0,0B
6E,05,B0,0B,6F,50,B0,01,01,00,B4,0B,55,00,BB,0B
55,0F,86,41,40,00,96,45,69,05,B0,01,02,28,B0,01
03,00,B4,0B,56,00,BB,0B,56,14,B0,01,04,14,B0,01
06,00,B4,0B,57,00,BB,0B,57,14,B0,01,07,14,B0,01
08,00,B4,0B,58,00,BB,0B,58,14,B0,01,0A,00,B4,0B
59,00,BB,0B,59,14,B0,01,0B,14,B0,01,0D,00,B4,0B
5A,00,BB,0B,5A,0A,B4,0B,5B,00,BB,0B,5B,2D,86,45
40,00,96,48,65,81,2A,80,41,40,09,FF,20,01,00,00
F0,09,43,10,4C,02,01,42,00,3D,F7,01,90,43,69,19
B0,01,00,05,B4,0B,59,00,BB,0B,59,10,87,24,40,0E
86,48,40,00,96,4D,63,00,97,24,70,46,B4,0B,58,00
BB,0B,58,28,B4,0B,57,00,BB,0B,57,14,B4,0B,56,00
BB,0B,56,1A,80,43,40,0E,B4,0B,55,00,BB,0B,55,09
FF,20,01,00,00,F0,09,43,10,4C,02,01,42,00,3C,F7
01,90,45,6E,0A,B4,0B,54,00,BB,0B,54,14,B4,0B,52
00,BB,0B,52,14,B4,0B,51,00,BB,0B,51,06,87,24,40
04,84,51,40,00,86,4D,40,00,8B,51,40,00,94,54,69
00,96,48,69,00,97,29,6E,00,9B,54,69,0A,B4,0B,50
00,BB,0B,50,05,B4,0B,4F,00,BB,0B,4F,81,11,B0,0B
6D,28,B0,0B,6C,14,B0,0B,6A,14,86,48,40,00,B0,0B
68,00,96,45,66,14,B0,0B,65,14,B0,0B,61,14,B0,0B
5D,0A,B0,0B,5A,3E,80,45,40,2B,B4,0B,4D,00,BB,0B
4D,04,FF,20,01,00,00,F0,09,43,10,4C,02,01,42,00
38,F7,01,90,46,6E,33,87,29,40,04,B0,0B,5D,05,84
54,40,00,85,48,40,00,85,45,40,00,85,41,40,00,86
45,40,00,86,35,40,00,8B,54,40,00,94,52,60,00,95
3E,58,00,95,41,58,00,95,46,58,00,96,4D,64,00,96
3A,65,00,97,2E,77,00,9B,52,60,23,B0,0B,5E,14,B0
0B,5F,00,B4,0B,4E,00,BB,0B,4E,14,B0,0B,61,14,B0
0B,64,14,B0,0B,67,00,B4,0B,4F,00,BB,0B,4F,14,B0
0B,6B,00,B4,0B,50,00,BB,0B,50,05,B0,0B,6D,23,B4
0B,51,00,BB,0B,51,14,B4,0B,52,00,BB,0B,52,14,B4
0B,53,00,BB,0B,53,19,86,4D,40,00,96,4A,63,0F,B4
0B,54,00,BB,0B,54,14,B4,0B,55,00,BB,0B,55,14,B4
0B,57,00,BB,0B,57,14,B4,0B,58,00,BB,0B,58,14,B4
0B,59,00,BB,0B,59,14,B4,0B,5A,00,BB,0B,5A,05,B4
0B,5B,00,BB,0B,5B,3B,FF,20,01,00,00,F0,09,43,10
4C,02,01,42,00,3D,F7,01,90,46,70,0A,B0,0B,64,1E
B4,0B,59,00,BB,0B,59,0A,B0,0B,65,0A,86,4A,40,00
86,3A,40,00,96,46,65,00,96,3A,69,0A,B0,0B,67,14
B0,0B,69,14,B0,0B,6D,0A,B0,0B,6F,64,B4,0B,58,00
BB,0B,58,50,86,46,40,00,B4,0B,57,00,96,4A,66,00
BB,0B,57,28,B4,0B,56,00,BB,0B,56,3C,B4,0B,55,00
BB,0B,55,0A,B0,0B,5E,1E,90,43,6E,00,B4,0B,54,00
BB,0B,54,14,B4,0B,53,00,BB,0B,53,0A,B0,0B,5F,0A
80,46,40,00,80,46,40,0A,B0,0B,61,0A,B4,0B,52,00
BB,0B,52,0A,B0,0B,63,14,B0,0B,65,0A,84,52,40,00
85,3E,40,00,85,41,40,00,85,46,40,00,86,4A,40,00
86,3A,40,00,87,2E,40,00,8B,52,40,00,B4,0B,51,00
94,4F,64,00,95,43,58,00,95,40,58,00,95,3C,58,00
96,48,69,00,96,37,65,00,97,2B,69,00,BB,0B,51,00
9B,4F,64,0A,B0,0B,68,0A,B4,0B,50,00,BB,0B,50,0A
B0,0B,6C,0A,B0,0B,6E,00,B4,0B,4F,00,BB,0B,4F,81
48,86,48,40,00,96,43,64,81,33,FF,20,01,00,00,F0
09,43,10,4C,02,01,42,00,3B,F7,01,80,43,40,00,B0
0B,6D,00,90,41,6C,0F,B4,0B,4E,00,BB,0B,4E,24,87
2B,40,09,84,4F,40,00,85,43,40,00,85,40,40,00,85
3C,40,00,86,43,40,00,86,37,40,00,8B,4F,40,00,94
4D,66,00,95,48,58,00,95,45,58,00,95,41,58,00,96
45,69,00,96,35,6E,00,97,29,6E,00,9B,4D,66,73,B4
0B,4F,00,BB,0B,4F,35,B0,01,00,07,B4,0B,50,00,BB
0B,50,28,B4,0B,51,00,BB,0B,51,19,86,45,40,00,96
48,66,0F,B4,0B,52,00,BB,0B,52,28,B4,0B,53,00,BB
0B,53,28,B4,0B,54,00,BB,0B,54,14,B4,0B,55,00,BB
0B,55,14,B4,0B,56,00,BB,0B,56,0D,B0,01,01,1B,B4
0B,57,00,BB,0B,57,14,B4,0B,58,00,BB,0B,58,14,B4
0B,59,00,BB,0B,59,0D,B0,01,02,03,87,29,40,04,B4
0B,5A,00,BB,0B,5A,05,86,48,40,00,96,4D,64,00,97
2D,69,0A,B0,0B,6E,05,B4,0B,5B,00,BB,0B,5B,0F,B4
0B,5C,00,BB,0B,5C,26,B0,01,03,28,B0,01,04,02,B0
0B,6F,3A,B0,01,05,02,B0,0B,70,26,B0,01,06,16,B0
0B,71,0A,86,4D,40,00,96,51,63,08,B0,01,07,16,B0
0B,72,12,B0,01,08,28,B0,01,09,28,B0,01,0A,02,B0
0B,71,0E,B0,01,0B,15,B0,01,0D,28,B0,01,0E,14,B0
01,0F,06,87,2D,40,09,86,51,40,00,96,4D,67,00,97
30,71,05,B0,01,11,0F,B0,01,14,0A,B0,0B,70,3C,B0
0B,6F,28,B0,0B,6E,14,B0,0B,6D,28,B0,0B,6C,14,B0
0B,6B,1E,86,4D,40,00,96,48,68,0A,B0,0B,6A,14,B0
0B,69,14,B0,0B,68,14,B0,0B,67,14,B0,0B,66,14,B0
0B,65,14,B0,0B,64,14,B0,0B,62,14,B0,0B,61,14,B0
0B,60,14,B0,0B,5F,14,B0,0B,5D,01,87,30,40,09,85
48,40,00,85,45,40,00,85,41,40,00,86,48,40,00,86
35,40,00,95,48,58,00,95,45,58,00,95,41,58,00,96
45,69,00,96,35,6E,00,97,29,6E,0A,B0,0B,5C,14,B0
0B,5A,14,B0,0B,59,14,B0,0B,57,14,B0,0B,56,14,B0
0B,54,14,B0,0B,52,14,B0,0B,50,14,B0,0B,4F,14,B0
0B,4D,14,B0,0B,4B,14,B0,0B,49,0A,86,45,40,00,96
48,66,0A,B0,0B,47,14,B0,0B,45,14,B0,0B,43,14,B0
0B,41,14,B0,0B,3E,14,B0,0B,3C,14,B0,0B,3A,14,B0
0B,37,14,B0,0B,35,14,B0,0B,33,14,B0,0B,30,14,B0
0B,2E,01,87,29,40,09,86,48,40,00,96,4D,64,00,97
2D,69,0A,B0,0B,2B,14,B0,0B,28,14,B0,0B,26,14,B0
0B,23,14,B0,0B,20,14,B0,0B,1D,14,B0,0B,1A,14,B0
0B,18,14,B0,0B,15,0A,80,41,40,0A,B0,0B,12,14,B0
0B,0E,1E,86,4D,40,00,96,51,63,6F,B0,01,00,78,87
2D,40,09,86,51,40,00,96,4D,67,00,97,30,71,81,70
86,4D,40,00,96,48,68,81,34,B0,0B,64,33,87,30,40
09,86,48,40,00,86,35,40,00,96,45,69,00,96,35,6E
00,97,29,6E,81,70,86,45,40,00,96,48,66,81,67,87
29,40,09,86,48,40,00,96,4D,64,00,97,2D,69,81,70
86,4D,40,00,96,51,63,81,67,87,2D,40,09,86,51,40
00,FF,51,03,0B,E3,D4,00,96,4D,67,00,97,30,71,78
FF,51,03,0C,0B,E1,28,FF,51,03,0C,35,00,28,FF,51
03,0C,5F,3A,28,86,4D,40,00,FF,51,03,0C,8A,9D,00
96,48,68,14,FF,51,03,0C,B7,35,00,B4,0B,5B,14,FF
51,03,0C,E5,0E,14,FF,51,03,0D,14,36,05,BB,0B,5B
0F,FF,51,03,0D,44,BD,05,B4,0B,5A,0F,FF,51,03,0D
76,B0,14,FF,51,03,0D,AA,22,0A,BB,0B,5A,0A,FF,51
03,0D,DF,22,14,FF,51,03,0E,15,C4,14,FF,51,03,0E
4E,1C,14,FF,51,03,0E,C4,3D,14,FF,51,03,0F,02,36
0B,87,30,40,09,86,48,40,00,86,35,40,00,FF,51,03
0F,84,75,00,96,3C,69,00,96,35,6E,00,97,29,6E,14
FF,51,03,0F,C8,F2,05,FF,51,03,10,0F,D7,14,B4,0B
59,0F,FF,51,03,11,F3,96,1E,BB,0B,59,37,B4,0B,58
2D,BB,0B,58,0F,B4,0B,57,23,96,41,66,05,B4,0B,56
05,BB,0B,57,28,BB,0B,56,0F,B4,0B,55,28,B4,0B,54
05,BB,0B,55,23,B4,0B,53,05,BB,0B,54,23,B4,0B,52
05,BB,0B,53,0F,B4,0B,51,19,BB,0B,52,0A,96,45,64
05,B4,0B,50,05,BB,0B,51,23,B4,0B,4F,05,BB,0B,50
0F,B4,0B,4E,14,B4,0B,4D,05,BB,0B,4F,14,BB,0B,4E
0F,B4,0B,4C,05,BB,0B,4D,0F,B4,0B,4B,14,B4,0B,4A
05,BB,0B,4C,14,BB,0B,4B,0F,B4,0B,49,05,BB,0B,4A
0F,B4,0B,48,0F,96,48,63,05,B4,0B,47,05,BB,0B,49
0F,B4,0B,46,05,BB,0B,48,0F,B4,0B,45,05,BB,0B,47
0F,B4,0B,44,05,BB,0B,46,0F,B4,0B,43,05,BB,0B,45
0F,B4,0B,42,05,BB,0B,44,0F,B4,0B,41,05,BB,0B,43
0F,B4,0B,40,05,BB,0B,42,0F,B4,0B,3F,05,BB,0B,41
0F,B4,0B,3E,05,BB,0B,40,0F,B4,0B,3D,05,BB,0B,3F
0F,B4,0B,3C,05,BB,0B,3E,0F,B4,0B,3B,05,BB,0B,3D
0F,B4,0B,3A,05,BB,0B,3C,0F,B4,0B,39,05,BB,0B,3B
0F,B4,0B,38,05,BB,0B,3A,0F,B4,0B,36,05,BB,0B,39
0F,B4,0B,35,05,BB,0B,38,0A,96,4D,63,05,B4,0B,34
05,BB,0B,36,0F,B4,0B,33,05,BB,0B,35,0F,B4,0B,31
05,BB,0B,34,0F,B4,0B,30,05,BB,0B,33,0F,B4,0B,2F
05,BB,0B,31,0F,B4,0B,2D,05,BB,0B,30,0F,B4,0B,2C
05,BB,0B,2F,0F,B4,0B,2B,05,BB,0B,2D,0F,B4,0B,29
05,BB,0B,2C,0F,B4,0B,28,05,BB,0B,2B,0F,B4,0B,26
05,BB,0B,29,0F,B4,0B,25,05,BB,0B,28,0A,86,41,40
05,B4,0B,24,05,BB,0B,26,0F,B4,0B,22,05,BB,0B,25
0F,B4,0B,21,05,BB,0B,24,0F,B4,0B,1F,05,BB,0B,22
0F,B4,0B,1D,05,BB,0B,21,0F,B4,0B,1C,05,BB,0B,1F
0A,86,3C,40,00,86,35,40,00,86,48,40,05,B4,0B,1A
05,BB,0B,1D,0F,B4,0B,19,05,BB,0B,1C,0F,B4,0B,17
05,BB,0B,1A,0F,B4,0B,15,05,BB,0B,19,0F,B4,0B,14
05,BB,0B,17,0F,B4,0B,12,05,BB,0B,15,0F,B4,0B,10
05,BB,0B,14,0F,B4,0B,0E,05,BB,0B,12,14,BB,0B,10
14,BB,0B,0E,32,86,45,40,3C,8B,4D,40,3C,84,4D,40
00,86,4D,40,84,1C,87,29,40,82,2C,85,48,40,00,85
45,40,00,85,41,40,81,BD,30,96,56,58,83,60,86,56
40,00,FF,2F,00
